<svg width="1280" height="960" viewBox="0 0 1280 960" fill="none" xmlns="http://www.w3.org/2000/svg">
<path d="M-13 960V822.577C376.642 894.221 769.604 1013.54 709.494 881.184C665.167 684.882 652.197 583.213 766.94 499.23C1382.98 142.852 1502.24 147.753 1398.85 442.644V960H-13Z" fill="#050733" fill-opacity="0.9"/>
<path d="M596.811 -6H-13V359.786C123.729 87.1148 257.14 11.2732 596.811 -6Z" fill="#050733" fill-opacity="0.9"/>
<path d="M-13 960V822.577C376.642 894.221 769.604 1013.54 709.494 881.184C665.167 684.882 652.197 583.213 766.94 499.23C1382.98 142.852 1502.24 147.753 1398.85 442.644V960H-13Z" stroke="#118383" stroke-width="2"/>
<path d="M596.811 -6H-13V359.786C123.729 87.1148 257.14 11.2732 596.811 -6Z" stroke="#118383" stroke-width="2"/>
</svg>
